<svg xmlns="http://www.w3.org/2000/svg" viewBox="0 0 200 200" width="200" height="200">
  <!-- Doctor's head -->
  <circle cx="100" cy="70" r="40" fill="#FFD8B9"/>
  
  <!-- Doctor's hair -->
  <path d="M60,70 C60,40 85,25 100,25 C115,25 140,40 140,70" fill="#555555"/>
  
  <!-- Doctor's face -->
  <circle cx="85" cy="65" r="5" fill="#333"/>
  <circle cx="115" cy="65" r="5" fill="#333"/>
  <path d="M90,85 C95,90 105,90 110,85" fill="none" stroke="#333" stroke-width="2" stroke-linecap="round"/>
  
  <!-- Doctor's body -->
  <path d="M70,110 L65,170 L135,170 L130,110" fill="#4A6FDC"/>
  <rect x="80" y="110" width="40" height="60" fill="white"/>
  
  <!-- Stethoscope -->
  <circle cx="80" cy="120" r="8" fill="#63C7B2"/>
  <path d="M80,128 C75,130 65,150 70,160" fill="none" stroke="#63C7B2" stroke-width="4" stroke-linecap="round"/>
  
  <!-- Medical cross on coat -->
  <rect x="95" y="130" width="10" height="20" fill="#FF8A5B"/>
  <rect x="90" y="135" width="20" height="10" fill="#FF8A5B"/>
  
  <!-- Medical clipboard -->
  <rect x="130" y="140" width="25" height="35" rx="2" fill="#F7FAFC" stroke="#A0AEC0" stroke-width="1"/>
  <rect x="130" y="140" width="25" height="8" rx="2" fill="#A0AEC0"/>
  <line x1="135" y1="155" x2="150" y2="155" stroke="#A0AEC0" stroke-width="1"/>
  <line x1="135" y1="160" x2="150" y2="160" stroke="#A0AEC0" stroke-width="1"/>
  <line x1="135" y1="165" x2="145" y2="165" stroke="#A0AEC0" stroke-width="1"/>
  
  <!-- Doctor's arms -->
  <path d="M70,110 C50,120 40,150 40,165" fill="none" stroke="#4A6FDC" stroke-width="10" stroke-linecap="round"/>
  <path d="M130,110 C150,130 160,140 165,160" fill="none" stroke="#4A6FDC" stroke-width="10" stroke-linecap="round"/>
  
  <!-- Doctor's hands -->
  <circle cx="40" cy="165" r="8" fill="#FFD8B9"/>
  <circle cx="165" cy="160" r="8" fill="#FFD8B9"/>
  
  <!-- Decorative elements -->
  <circle cx="50" cy="50" r="10" fill="none" stroke="#63C7B2" stroke-width="2" stroke-dasharray="2,2"/>
  <circle cx="150" cy="40" r="8" fill="none" stroke="#63C7B2" stroke-width="2" stroke-dasharray="2,2"/>
  <circle cx="30" cy="100" r="12" fill="none" stroke="#FF8A5B" stroke-width="2" stroke-dasharray="2,2"/>
  <circle cx="170" cy="100" r="10" fill="none" stroke="#FF8A5B" stroke-width="2" stroke-dasharray="2,2"/>
</svg>
