<svg xmlns="http://www.w3.org/2000/svg" viewBox="0 0 100 100" width="100" height="100">
  <!-- Tongue outline -->
  <path d="M50,20 C70,20 85,30 85,50 C85,75 65,85 50,85 C35,85 15,75 15,50 C15,30 30,20 50,20 Z" fill="#FF8A8A" stroke="#E06666" stroke-width="2" stroke-linecap="round"/>
  
  <!-- Tongue center line -->
  <path d="M50,25 C50,25 50,80 50,80" fill="none" stroke="#E06666" stroke-width="2" stroke-linecap="round" stroke-dasharray="2,4"/>
  
  <!-- Tongue texture -->
  <circle cx="40" cy="40" r="3" fill="#E06666" opacity="0.7"/>
  <circle cx="60" cy="40" r="3" fill="#E06666" opacity="0.7"/>
  <circle cx="45" cy="50" r="2" fill="#E06666" opacity="0.7"/>
  <circle cx="55" cy="50" r="2" fill="#E06666" opacity="0.7"/>
  <circle cx="40" cy="60" r="3" fill="#E06666" opacity="0.7"/>
  <circle cx="60" cy="60" r="3" fill="#E06666" opacity="0.7"/>
  <circle cx="50" cy="70" r="4" fill="#E06666" opacity="0.7"/>
  
  <!-- Medical cross symbol -->
  <circle cx="75" cy="25" r="12" fill="#4A6FDC" opacity="0.9"/>
  <rect x="70" y="20" width="10" height="10" fill="white"/>
  <rect x="75" y="15" width="0" height="20" fill="white" stroke="white" stroke-width="4"/>
  <rect x="65" y="25" width="20" height="0" fill="white" stroke="white" stroke-width="4"/>
  
  <!-- Decorative elements -->
  <circle cx="20" cy="30" r="5" fill="none" stroke="#63C7B2" stroke-width="2" stroke-dasharray="2,2"/>
  <circle cx="25" cy="75" r="6" fill="none" stroke="#63C7B2" stroke-width="2" stroke-dasharray="2,2"/>
  <circle cx="75" cy="65" r="7" fill="none" stroke="#63C7B2" stroke-width="2" stroke-dasharray="2,2"/>
</svg>
